<svg width="212" height="79" viewBox="0 0 212 79" fill="none" xmlns="http://www.w3.org/2000/svg">
<g clip-path="url(#clip0_1_26)">
<path d="M109.452 26.1666L119.538 25.5124C119.768 27.1671 120.19 28.3984 120.88 29.2835C121.992 30.6688 123.526 31.3614 125.559 31.3614C127.054 31.3614 128.243 31.0151 129.048 30.284C129.815 29.7068 130.276 28.7833 130.276 27.8212C130.276 26.8977 129.854 26.0127 129.125 25.4355C128.358 24.7428 126.556 24.0502 123.718 23.4345C119.077 22.3955 115.741 21.0102 113.785 19.2401C111.829 17.5855 110.717 15.1612 110.794 12.5831C110.794 10.813 111.331 9.04287 112.328 7.58062C113.478 5.92597 115.051 4.61764 116.93 3.88651C118.962 3.00147 121.8 2.5397 125.367 2.5397C129.739 2.5397 133.075 3.34779 135.376 5.00244C137.677 6.61861 139.058 9.23527 139.48 12.8139L129.509 13.3911C129.24 11.8519 128.703 10.736 127.821 10.0049C126.939 9.27375 125.789 8.92743 124.293 8.92743C123.066 8.92743 122.145 9.19679 121.532 9.69703C120.957 10.1588 120.573 10.8514 120.611 11.621C120.611 12.1983 120.918 12.737 121.378 13.0833C121.877 13.5451 123.066 13.9683 124.945 14.3531C129.585 15.3536 132.884 16.3541 134.916 17.3931C136.949 18.4321 138.406 19.7019 139.288 21.2026C140.208 22.7418 140.669 24.5119 140.63 26.3205C140.63 28.4754 140.017 30.6303 138.789 32.4389C137.524 34.3244 135.76 35.7867 133.689 36.6717C131.503 37.6337 128.742 38.134 125.444 38.134C119.614 38.134 115.588 37.018 113.325 34.7477C111.062 32.4774 109.72 29.6298 109.452 26.1666ZM2.41606 37.5568V3.15539H20.0955C23.3553 3.15539 25.8864 3.42475 27.6122 4.00195C29.2996 4.54068 30.7952 5.65661 31.7923 7.15734C32.9045 8.81199 33.4414 10.736 33.403 12.737C33.5181 16.1232 31.7923 19.3556 28.8394 21.0487C27.6889 21.7029 26.4233 22.1646 25.1194 22.3955C26.0782 22.6649 27.0369 23.1266 27.8806 23.6654C28.5326 24.2041 29.0695 24.8198 29.568 25.4739C30.1433 26.1281 30.6418 26.8592 31.0637 27.6288L36.2026 37.5952H24.1606L18.4848 27.0132C17.7562 25.6663 17.1425 24.7813 16.5673 24.358C15.8003 23.8193 14.8799 23.5499 13.9595 23.5499H13.0391V37.5183H2.41606V37.5568ZM13.0391 17.0852H17.5261C18.4848 17.0083 19.4052 16.8544 20.3256 16.6235C21.0159 16.508 21.6295 16.1232 22.0514 15.546C23.0868 14.1607 22.9334 12.1983 21.6679 11.0054C20.9776 10.4282 19.6353 10.1203 17.7178 10.1203H13.0391V17.0852ZM0 67.0326L10.0861 66.3785C10.3162 68.0331 10.7381 69.2645 11.4284 70.1495C12.5022 71.5348 14.0745 72.266 16.1071 72.266C17.6028 72.266 18.7916 71.9196 19.597 71.1885C20.364 70.5728 20.8242 69.6878 20.8242 68.7258C20.8242 67.8022 20.4023 66.9172 19.6737 66.34C18.9067 65.6473 17.1042 64.9547 14.2279 64.339C9.58755 63.3001 6.25109 61.9148 4.29522 60.1447C2.33936 58.49 1.22721 56.0658 1.30391 53.4876C1.30391 51.7175 1.84081 49.9474 2.83792 48.4851C3.98842 46.8305 5.56078 45.5222 7.43994 44.791C9.4725 43.906 12.3104 43.4442 15.877 43.4442C20.2489 43.4442 23.5854 44.2523 25.8864 45.907C28.1874 47.5616 29.5297 50.1398 29.9515 53.7185L19.9805 54.2957C19.712 52.7565 19.1751 51.6405 18.2931 50.9094C17.4494 50.1783 16.2605 49.832 14.7648 49.8704C13.5376 49.8704 12.6172 50.1398 12.0036 50.6785C11.39 51.1403 11.0449 51.8329 11.0832 52.6025C11.0832 53.1797 11.39 53.7185 11.8502 54.0648C12.3488 54.5265 13.5376 54.9498 15.4168 55.3346C20.0572 56.3351 23.3553 57.3356 25.3878 58.3746C27.4204 59.4135 28.8777 60.6834 29.7598 62.1841C30.6802 63.7233 31.1404 65.4934 31.1404 67.2635C31.1404 69.4184 30.4884 71.5348 29.2996 73.3434C28.034 75.2289 26.2699 76.6912 24.199 77.5762C22.013 78.5382 19.2518 79.0385 15.9537 79.0385C10.1245 79.0385 6.09769 77.9226 3.83502 75.6522C1.57236 73.3434 0.306802 70.4959 0 67.0326H0Z" fill="white"/>
<path d="M51.0058 64.339L60.2866 67.1481C59.788 69.4954 58.7526 71.7272 57.3336 73.6897C56.0297 75.4213 54.3039 76.7681 52.3481 77.6532C50.3539 78.5382 47.8227 79 44.7547 79C41.0348 79 37.9667 78.4613 35.6274 77.3838C33.2497 76.3064 31.2171 74.3824 29.4913 71.6503C27.7656 68.9182 26.9219 65.4165 26.9219 61.1452C26.9219 55.4501 28.4175 51.0633 31.4472 48.0234C34.4769 44.9834 38.7337 43.4442 44.2562 43.4442C48.5897 43.4442 51.9646 44.3293 54.4573 46.0609C56.9117 47.831 58.7526 50.5246 59.9798 54.1417L50.6223 56.2197C50.3922 55.4116 50.0471 54.6035 49.5869 53.9109C49.0116 53.1028 48.2829 52.4871 47.4009 52.0253C46.5188 51.5636 45.5217 51.3712 44.5246 51.3712C42.1086 51.3712 40.2677 52.3332 39.0022 54.2957C38.0434 55.7194 37.5449 57.9898 37.5449 61.0682C37.5449 64.8777 38.1201 67.4944 39.2706 68.9182C40.4212 70.3419 42.0319 71.0346 44.1411 71.0346C46.1737 71.0346 47.7077 70.4574 48.7431 69.3414C49.7786 68.1486 50.5456 66.4939 51.0058 64.339ZM72.6737 44.0214H83.2583V56.0658H94.8401V44.0214H105.501V78.4228H94.8401V64.4929H83.2583V78.4228H72.6737V44.0214V44.0214Z" fill="white"/>
<path d="M104.044 61.2221C104.044 55.604 105.616 51.2172 108.723 48.1003C111.829 44.9834 116.201 43.4057 121.762 43.4057C127.476 43.4057 131.848 44.945 134.954 48.0234C138.061 51.1018 139.595 55.4116 139.595 60.9527C139.595 64.9932 138.904 68.264 137.562 70.8422C136.258 73.3819 134.226 75.4598 131.733 76.8451C129.164 78.2689 125.98 79 122.184 79C118.31 79 115.127 78.3843 112.596 77.1529C109.988 75.8446 107.841 73.8052 106.422 71.3039C104.849 68.6103 104.044 65.2625 104.044 61.2221ZM114.629 61.2606C114.629 64.7238 115.281 67.225 116.546 68.7642C117.812 70.265 119.576 71.0346 121.8 71.0346C124.063 71.0346 125.827 70.3035 127.093 68.8027C128.358 67.302 128.972 64.6469 128.972 60.7988C128.972 57.5665 128.32 55.1807 127.016 53.7185C125.712 52.2177 123.948 51.4866 121.724 51.4866C119.768 51.4096 117.889 52.2562 116.585 53.7569C115.281 55.2577 114.629 57.7589 114.629 61.2606V61.2606ZM150.448 61.2221C150.448 55.604 152.02 51.2172 155.127 48.1003C158.233 44.9834 162.605 43.4057 168.166 43.4057C173.88 43.4057 178.29 44.945 181.358 48.0234C184.426 51.1018 185.999 55.4116 185.999 60.9527C185.999 64.9932 185.308 68.264 183.966 70.8422C182.662 73.3819 180.63 75.4598 178.137 76.8451C175.567 78.2689 172.384 79 168.588 79C164.714 79 161.531 78.3843 159 77.1529C156.392 75.8446 154.245 73.8052 152.826 71.3039C151.253 68.6103 150.448 65.2625 150.448 61.2221V61.2221ZM161.033 61.2606C161.033 64.7238 161.685 67.225 162.95 68.7642C164.216 70.265 165.98 71.0346 168.204 71.0346C170.467 71.0346 172.231 70.3035 173.496 68.8027C174.762 67.302 175.376 64.6469 175.376 60.7988C175.376 57.5665 174.724 55.1807 173.42 53.7185C172.116 52.2177 170.352 51.4866 168.127 51.4866C166.171 51.4096 164.254 52.2562 162.988 53.7569C161.685 55.2577 161.033 57.7589 161.033 61.2606V61.2606Z" fill="white"/>
<path d="M184.886 44.0214H195.471V69.9571H212V78.4228H184.848V44.0214H184.886Z" fill="white"/>
<path d="M173.22 42.0361C183.876 33.9783 187.162 20.3191 180.559 11.5274C173.957 2.7357 159.965 2.14071 149.309 10.1985C138.652 18.2562 135.366 31.9155 141.969 40.7072C148.572 49.4989 162.563 50.0939 173.22 42.0361Z" fill="black"/>
<path d="M173.22 42.0361C183.876 33.9783 187.162 20.3191 180.559 11.5274C173.957 2.7357 159.965 2.14071 149.309 10.1985C138.652 18.2562 135.366 31.9155 141.969 40.7072C148.572 49.4989 162.563 50.0939 173.22 42.0361Z" fill="black"/>
<path d="M173.22 42.0361C183.876 33.9783 187.162 20.3191 180.559 11.5274C173.957 2.7357 159.965 2.14071 149.309 10.1985C138.652 18.2562 135.366 31.9155 141.969 40.7072C148.572 49.4989 162.563 50.0939 173.22 42.0361Z" fill="black" stroke="white" stroke-width="4" stroke-miterlimit="10"/>
<path d="M173.22 42.0361C183.876 33.9783 187.162 20.3191 180.559 11.5274C173.957 2.7357 159.965 2.14071 149.309 10.1985C138.652 18.2562 135.366 31.9155 141.969 40.7072C148.572 49.4989 162.563 50.0939 173.22 42.0361Z" stroke="white" stroke-width="4" stroke-miterlimit="10"/>
<path d="M173.22 42.0361C183.876 33.9783 187.162 20.3191 180.559 11.5274C173.957 2.7357 159.965 2.14071 149.309 10.1985C138.652 18.2562 135.366 31.9155 141.969 40.7072C148.572 49.4989 162.563 50.0939 173.22 42.0361Z" stroke="white" stroke-width="4" stroke-miterlimit="10"/>
<path d="M150.486 23.5884L154.321 20.8948L159.038 27.6288C159.844 28.7063 160.457 29.8607 160.917 31.1305C161.186 32.0925 161.109 33.1315 160.726 34.055C160.227 35.2094 159.422 36.1715 158.348 36.8641C157.082 37.7491 156.009 38.2494 155.088 38.4033C154.206 38.5572 153.286 38.4033 152.442 38.0185C151.522 37.5567 150.716 36.9026 150.103 36.056L153.401 32.9776C153.669 33.4009 154.014 33.7857 154.398 34.0935C154.666 34.2859 154.973 34.4014 155.318 34.4014C155.587 34.4014 155.855 34.2859 156.047 34.132C156.431 33.9011 156.699 33.4394 156.661 32.9776C156.546 32.3234 156.277 31.6693 155.855 31.169L150.486 23.5884V23.5884ZM161.991 27.8597L165.481 25.0891C165.865 25.5509 166.363 25.8972 166.9 26.0896C167.667 26.3205 168.472 26.1666 169.124 25.6663C169.585 25.3585 169.968 24.9352 170.122 24.3965C170.352 23.7038 169.968 22.9342 169.278 22.7034C169.163 22.6649 169.048 22.6264 168.933 22.6264C168.472 22.5879 167.667 22.7803 166.478 23.2806C164.522 24.0886 162.988 24.3965 161.838 24.281C160.726 24.1656 159.69 23.5884 159.077 22.6264C158.616 21.9722 158.386 21.2026 158.348 20.433C158.348 19.548 158.578 18.6629 159.077 17.9318C159.805 16.8928 160.687 16.0078 161.761 15.3151C163.372 14.1992 164.791 13.6605 166.018 13.6605C167.245 13.6605 168.396 14.2377 169.47 15.4306L166.018 18.1627C165.328 17.2776 164.024 17.0852 163.142 17.7779L163.027 17.8933C162.643 18.1242 162.375 18.4705 162.221 18.8938C162.106 19.2017 162.183 19.548 162.375 19.8173C162.528 20.0097 162.758 20.1637 163.027 20.1637C163.334 20.2021 163.87 20.0482 164.637 19.7019C166.555 18.8938 168.012 18.432 169.009 18.2781C169.853 18.1242 170.735 18.2012 171.54 18.5475C172.269 18.8553 172.883 19.3941 173.305 20.0482C173.841 20.8178 174.148 21.7413 174.187 22.7034C174.225 23.7038 173.957 24.6659 173.42 25.5124C172.729 26.5514 171.847 27.4364 170.812 28.1291C168.703 29.5913 166.977 30.207 165.596 29.9761C164.101 29.7452 162.873 28.9756 161.991 27.8597V27.8597Z" fill="white"/>
</g>
<defs>
<clipPath id="clip0_1_26">
<rect width="212" height="79" fill="white"/>
</clipPath>
</defs>
</svg>
